<?xml version="1.0" encoding="utf-8"?>
<!-- Generator: Adobe Illustrator 26.3.1, SVG Export Plug-In . SVG Version: 6.00 Build 0)  -->
<svg version="1.1" id="圖層_1" xmlns="http://www.w3.org/2000/svg" xmlns:xlink="http://www.w3.org/1999/xlink" x="0px" y="0px"
	 viewBox="0 0 512 512" style="enable-background:new 0 0 512 512;" xml:space="preserve">
<style type="text/css">
	.st0{fill:#FCD52E;}
	.st1{enable-background:new    ;}
	.st2{fill:#FFFFFF;}
</style>
<g>
	<path class="st0" d="M318.5,190.6c30.1,8.1,65.6-20.5,77.5-63.9s-3.6-85.2-34.5-93.4c-30.1-8.1-65.6,20.5-77.5,63.9
		S287.6,182.5,318.5,190.6z"/>
	<path class="st0" d="M193.5,190.6c30.9-8.1,46.4-49.1,34.5-93.4s-46.5-71.1-77.5-63.9c-30.9,8.1-46.4,49.1-34.5,93.4
		C127.9,170.1,162.5,198.8,193.5,190.6z"/>
	<path class="st0" d="M474.9,161.3c-29.1-6.1-61.2,15.5-71.6,50.1s4.8,68.4,33.9,75.4c29.1,6.1,61.1-15.5,71.6-50.1
		C519.1,202,503.1,168.3,474.9,161.3z"/>
	<path class="st0" d="M256,224c-79.4,0-191.1,122.7-191.1,200.2C64,459.1,90.8,480,135.8,480c48.8,0,81.1-25.1,120.2-25.1
		c39.5,0,71.9,25.1,120.2,25.1c44.1,0,71.7-20.9,71.7-55.8C447.1,346.8,335.4,224,256,224z"/>
	<path class="st0" d="M108.8,211.4c-10.4-34.6-42.5-57.1-71.6-50.1S-7.1,202,3.3,236.6c10.4,34.7,42.5,57.2,71.6,50.2
		S119.1,246,108.8,211.4z"/>
</g>
<g class="st1">
	<path class="st2" d="M135.2,363.1c-3.3,19.3-7.5,39.1-12.4,59c-4.7,0-8.2-1-10.5-2.6c3.6-19.3,8-38.8,13.1-58.1
		C128,361.8,131.3,362.3,135.2,363.1z M220.5,347.9v4.1c0,2.3-0.3,4.3-0.7,5.6c-31.7-0.3-63.8-2.1-96.2-5.2c-0.5-1-0.7-2.8-0.7-5.1
		c0-1.6,0.3-3.3,1.1-4.9C155.9,343.8,188.2,345.6,220.5,347.9z M167.2,333.9c-10.6,2.3-22.2,3.4-34.8,3.6
		c-2.5-5.9-3.9-15.5-4.6-28.9c11.4-2.3,23.7-3.6,37-3.6C166.4,314.4,167.2,324.1,167.2,333.9z M149.4,413.8h4.6
		c6.2,0,11,0.2,14.4,0.5c0-8.7,0.2-17.7,0.8-26.8c1.5-0.3,3.1-0.5,4.7-0.5c1.6,0,3.3,0.2,4.6,0.5c0.5,9.8,0.8,18.8,0.8,27
		c0,6.1-0.7,11.4-1.8,16c-0.8,0.3-2.3,0.5-4.4,0.5c-2,0-3.3-0.2-3.9-0.5c-0.3-2.8-0.7-5.6-0.7-8.3c-3.4,0.2-8.3,0.3-14.7,0.3
		c-10.3,0-17.7-0.3-22.1-1c-0.3-1.1-0.5-2.5-0.5-3.8s0-2.6,0.3-3.6c2.6,0,5.4-0.2,8.3-0.2c0-11.4,0.2-20.4,0.5-26.7
		c1.3,0,2.8-0.2,4.7-0.2c1.6,0,3.1,0.3,4.6,0.8v2c4.6,0.2,9.5,0.7,14.7,1.3c0,2.6-0.5,5.1-1.1,7.2c-5.4,0-10-0.2-13.6-0.8v3.6
		c4.6,0.3,9.5,0.8,14.9,1.5c0,2.6-0.5,5.1-1.1,7.2c-5.6,0-10.3-0.2-13.9-0.8C149.6,410.7,149.4,412.4,149.4,413.8z M183.1,379.2v4.1
		c-15.5,1-30.9,1.5-46,1.5c-0.7-2.6-0.8-5.2-0.8-8c5.9-0.3,11.8-0.5,18-0.7c-0.3-2.3-0.5-4.6-0.5-6.9c-4.3-0.2-8.2-0.5-12.1-1
		c0-2.8,0.3-5.6,1-8.5c11.1,0.3,22.2,1,33.2,2.1c0,2.8-0.3,5.4-0.8,8c-3.9,0-7.7,0-11.3-0.2c0,2.1,0.2,4.1,0.3,6.1
		c6.2,0,12.4-0.2,18.6-0.2C182.9,376.7,183.1,377.9,183.1,379.2z M156.6,326.3l-2-11.8l-15.2,1.5l2,12.1L156.6,326.3z M217.9,333.9
		c-11.6,1-22.9,1.3-34,1.3c-1.6-10.3-2.6-20.1-2.9-29.4c11.6-0.7,23.7-1.1,36.1-1.1C217.6,314.4,217.9,324.1,217.9,333.9z
		 M205.8,366.9c-1.1,4.3-2.5,8.2-3.8,11.9h2.3c8.5,0,15.2,0.3,20.4,1c0.3,1,0.5,2.3,0.5,4.3c0,2.1-0.2,3.4-0.5,4.1
		c-1.3,0.5-8.2,0.7-20.4,0.7c-2.8,0-4.9,0-6.2-0.2c-1.1,2.8-2.3,5.4-3.4,7.8c-3.3-0.7-6.1-2-8.2-3.9c3.3-10.3,6.7-20,10.6-28.8
		C199.9,364.5,202.9,365.6,205.8,366.9z M223.3,397c-2.5,3.8-5.1,7.4-7.7,10.8c3.8,2.1,7.4,4.3,11,6.2c-1.3,2.6-2.9,4.9-5.1,7.5
		c-4.6-1.8-8.7-3.6-12.6-5.6c-3.1,3.8-6.4,7.5-9.8,11.1c-0.7,0-2-0.7-4.3-2s-3.6-2.5-3.9-3.1c2.5-3.6,5.2-7.2,8.2-11.1
		c-2.9-1.6-5.9-3.3-8.5-5.1c1.5-3.1,3.1-5.9,4.9-8.5c3.4,1.8,6.9,3.4,10.1,5.1c2.8-3.4,5.7-7,9-10.8
		C217.6,393.1,220.5,394.9,223.3,397z M193.1,326l14.7-0.8l-0.7-11.6l-15.4,0.5L193.1,326z"/>
	<path class="st2" d="M284.3,322.4c0.2-5.2,0.8-9.5,1.8-12.6c1.6-0.2,3.6-0.3,5.7-0.3c2,0,3.8,0.3,5.6,0.8c0,4.1-0.3,8.5-1,13.2
		c5.2,0.7,10.6,1.1,16,1.8c0,3.3-0.5,6.9-1.3,10.8c-15.7,0-32.1-1.5-48.7-4.4c0-3.9,0.3-7.7,1.1-11
		C270.6,321.3,277.5,321.8,284.3,322.4z M308.5,420.9c-10.8,2.6-22.4,3.9-35.2,4.3c-2.6-6.9-4.1-17.7-4.7-32.7
		c11.4-2.5,23.9-3.8,37.3-3.8C307.6,399.1,308.5,409.9,308.5,420.9z M294.8,369c-0.3,1.6-0.5,3.3-0.7,4.9c-0.3,2.6-0.8,4.4-1.1,5.4
		c-4.1,0-8-0.3-11.9-1c-4.1-0.3-8.2-0.8-12.1-1.8c0-3.3,0.3-6.9,1.1-10.5C278.6,366.7,286.9,367.7,294.8,369z M300.5,346.3
		c0.3,1.6,0.7,3.3,0.7,5.1s-0.2,3.4-0.3,4.9c-2.6,0.7-6.7,1-12.4,1c-5.4,0-9.3-0.2-11.8-0.7c-0.7-1.3-1-2.9-1-4.9
		c0-1.8,0.2-3.4,0.7-5.1c1.8-0.3,6.1-0.7,12.8-0.7C294,346,297.7,346.1,300.5,346.3z M297.4,412.5l-2-13.4l-14.7,1.6l2.3,13.7
		L297.4,412.5z M334.5,313.4c1.3-5.2,2.5-10.3,3.8-14.9c3.3,0.5,6.7,1.1,10.1,2.1c-1,4.4-1.8,8.8-2.6,13.2
		c7.8,0.3,15.7,0.8,23.4,1.5c1-3.9,2-8,2.9-12.1c3.6,0.3,7.2,0.7,10.6,1c-0.7,4.1-1.5,8.2-2.1,12.1c4.9,0.5,9.8,1,14.6,1.6
		c0,3.3-0.3,6.4-0.8,9.3c-5.4,0-10.6,0-15.9-0.2c-1.3,6.1-2.5,12.1-3.8,18.3c-5.6-0.2-11.1-0.5-16.7-1.1c0,2,0.2,3.6,0.2,5.2
		c8.7,0.5,17.8,1.1,27.3,1.8c1,2.5,1.6,8.2,1.6,17c0,7.2-0.7,11.9-1.6,14.1c-4.6,0.5-13.6,0.8-27.1,0.8v5.4
		c8.2,0.3,16.7,0.8,25.5,1.3c0,2.9-0.3,6.1-1,9.3c-8.5,0-16.7,0-24.9-0.3c-0.2,2-0.2,4.4-0.2,7.4c9.8-0.3,20-0.8,30.3-1.3
		c0.7,2.6,1,5.6,1.3,8.7c-10.3,0.8-20.9,1.5-31.7,2v7.7c8.2-0.5,16.5-0.7,25-0.7c0,1.1,0.2,2.5,0.2,4.1v4.4
		c-19.8,2.3-39.2,3.4-58.4,3.4c-0.7-2.9-0.8-6.1-0.8-9c7.5-0.8,15-1.5,22.7-1.8c-0.3-2.6-0.5-5.1-0.5-7.7c-8.8,0.5-18,0.8-27.1,1
		c-0.7-2.5-1.1-5.4-1.5-8.8c9.2-0.5,18.6-1,28.3-1.5c-0.2-2.6-0.2-5.4-0.2-8.3c-8.8-0.3-17.3-0.8-25.8-1.5v-5.1c0-1.3,0-2.6,0.3-4.1
		c8,0,16.5,0.2,25.5,0.3v-4.9h-2.6c-12.1,0-20.6-0.8-25.7-2.5c-1.1-3.8-1.6-7.7-1.6-11.9c0-3.9,0.2-8,0.8-12.4
		c1.1-0.3,2.6-0.7,4.6-0.7c2,0,3.6,0.3,4.9,0.7c0.7,3.6,1.1,8.7,1.1,15.2c5.9,0.5,12.1,0.8,18.6,1c0-4.1,0-8.5,0.2-13.2
		c-5.9-0.5-11.3-1-16.5-1.6V353c0-1.5,0.2-2.8,0.7-4.1c5.2,0,10.5,0.2,16,0.2c0-2,0.2-4.1,0.2-6.1c-5.7-0.7-11.3-1.5-16.8-2.5
		c1-5.6,2-11.1,2.9-16.4c-4.9-0.3-9.6-0.8-14.4-1.5c0-3.6,0.3-6.7,1-9.5C324.1,313.3,329.3,313.4,334.5,313.4z M366.9,326.7
		c-7.8-0.3-15.7-0.8-23.4-1.5c-0.5,2.6-1,5.2-1.5,7.7c7.2,0.7,15,1.1,23.6,1.5C365.9,331.7,366.4,329.3,366.9,326.7z M358.2,373.1
		c5.6,0.2,11.1,0.2,16.8,0.2c0.2-4.1,0.3-8,0.3-11.9c-6.1-0.3-11.8-0.7-17.2-1V373.1z"/>
</g>
</svg>
