<?xml version="1.0" encoding="utf-8"?>
<!-- Generator: Adobe Illustrator 26.3.1, SVG Export Plug-In . SVG Version: 6.00 Build 0)  -->
<svg version="1.1" id="圖層_1" xmlns="http://www.w3.org/2000/svg" xmlns:xlink="http://www.w3.org/1999/xlink" x="0px" y="0px"
	 viewBox="0 0 512 512" style="enable-background:new 0 0 512 512;" xml:space="preserve">
<style type="text/css">
	.st0{fill:#FCD52E;}
	.st1{fill:#FFFFFF;}
</style>
<g>
	<path class="st0" d="M318.5,190.6c30.1,8.1,65.6-20.5,77.5-63.9s-3.6-85.2-34.5-93.4c-30.1-8.1-65.6,20.5-77.5,63.9
		C272.1,140.6,287.6,182.5,318.5,190.6z"/>
	<path class="st0" d="M193.5,190.6c30.9-8.1,46.4-49.1,34.5-93.4c-11.9-44.3-46.5-71.1-77.5-63.9c-30.9,8.1-46.4,49.1-34.5,93.4
		C127.9,170.1,162.5,198.8,193.5,190.6z"/>
	<path class="st0" d="M474.9,161.3c-29.1-6.1-61.2,15.5-71.6,50.1c-10.4,34.6,4.8,68.4,33.9,75.4c29.1,6.1,61.1-15.5,71.6-50.1
		C519.1,202,503.1,168.3,474.9,161.3z"/>
	<path class="st0" d="M256,224c-79.4,0-191.1,122.7-191.1,200.2C64,459.1,90.8,480,135.8,480c48.8,0,81.1-25.1,120.2-25.1
		c39.5,0,71.9,25.1,120.2,25.1c44.1,0,71.7-20.9,71.7-55.8C447.1,346.8,335.4,224,256,224z"/>
	<path class="st0" d="M108.8,211.4c-10.4-34.6-42.5-57.1-71.6-50.1S-7.1,202,3.3,236.6c10.4,34.7,42.5,57.2,71.6,50.2
		S119.1,246,108.8,211.4z"/>
</g>
<g>
	<path class="st1" d="M140.1,329.1c0,10.6-0.7,22.4-2,35.3c-1.3,0.5-3.3,0.7-5.7,0.7c-2.6,0-4.4-0.3-5.4-1.3
		c0-15.5,0.5-27.3,1.8-35.3c1.6-0.2,3.6-0.3,5.7-0.3C136.6,328.1,138.3,328.5,140.1,329.1z M234.7,375.1v5.6
		c-19.6,1.6-39.1,2.8-58.7,3.6c-2.5,6.9-4.7,13.9-7,20.8c11.1,2.6,22.2,4.9,33.5,7.2c2.6-6.9,5.2-13.4,7.9-19.3
		c3.3,1,6.7,2.1,10.3,3.4c-1.8,6.2-3.8,12.4-6.1,18.3c4.9,1,10,2,14.9,2.9c-0.5,3.1-1.5,6.4-2.9,10c-5.6-1-11-1.8-16.2-2.8
		c-1.6,3.4-3.1,6.9-4.7,10.3c-3.8-1-7-2.5-9.6-4.7c0.8-2.8,1.6-5.4,2.6-7.9c-15.7-3.1-31.2-6.7-46.8-11c3.1-9.3,6.2-18.2,9.5-26.7
		c-8.2,0.5-16.4,0.8-24.2,1c-0.7-3.6-1-7.2-1-11c10-0.7,20-1.1,29.8-1.8c2.9-7.7,6.1-15,9.3-22.1c3.9,1,7.7,2.3,11,3.6
		c-2.1,5.9-4.3,11.8-6.2,17.7c1.6,0,3.3-0.2,4.9-0.3c16-0.8,32.5-1.5,49.2-2C234.3,371.6,234.7,373.4,234.7,375.1z M184.1,329.1
		c-0.5-5.6-0.7-11.1-0.7-16.8c2-0.2,4.1-0.3,6.5-0.7c2.5,0,4.4,0.2,5.9,0.3c0,5.9,0.2,11.6,0.2,17.5c15.7,0.3,31.2,0.8,46.6,1.5
		c0.7,9.8,1,19.1,1,28c-1.1,0.5-2.8,0.7-4.9,0.7c-1.5,0-3.4,0-5.7-0.3c-0.7-3.8-1.3-10-2-18.5c-25.2,0-50.7-0.7-76.4-2
		c-0.5-1.5-0.7-3.3-0.7-5.4c0-1.3,0-2.9,0.3-4.6C164.4,328.8,174.3,329,184.1,329.1z"/>
	<path class="st1" d="M314.6,348.1c-7.2,11-18.5,23.7-34,38.3c-3.6-2-6.2-4.6-7.7-8c10.8-13.7,21.9-26.3,33.7-37.6
		C309.7,342.7,312.4,345.1,314.6,348.1z M334.6,366.1c1,12.1,1.8,24.2,2.8,36.6c13.6,0,27.5,0.3,41.9,0.7c0.3,1.3,0.7,2.8,0.7,4.4
		c0,2-0.2,3.9-0.3,5.7c-9.6,0.5-21.8,0.7-36.5,0.7c-6.2,0-11.9-0.3-17.2-1c-1.5-13.7-2.1-29.4-2.1-46.8c2-0.7,3.8-1.1,5.2-1.1
		C331.3,365.3,333.1,365.6,334.6,366.1z M369.6,349.6c-2,1.6-4.7,3.3-8.7,4.7c-3.8-4.7-7-11-10-18.8c2.6-2.1,5.6-3.8,9-4.9
		C364.5,337.6,367.6,344,369.6,349.6z M410.3,364.3c-2,1.6-4.7,3.3-8.7,4.7c-4.3-4.4-7.9-10.1-11.1-17.3c2.5-2,5.4-3.6,9-4.7
		C404.4,353.5,408,359.2,410.3,364.3z"/>
</g>
</svg>
