<?xml version="1.0" encoding="utf-8"?>
<!-- Generator: Adobe Illustrator 26.3.1, SVG Export Plug-In . SVG Version: 6.00 Build 0)  -->
<svg version="1.1" id="圖層_1" xmlns="http://www.w3.org/2000/svg" xmlns:xlink="http://www.w3.org/1999/xlink" x="0px" y="0px"
	 viewBox="0 0 512 512" style="enable-background:new 0 0 512 512;" xml:space="preserve">
<style type="text/css">
	.st0{fill:#FCD52E;}
	.st1{fill:#FFFFFF;}
</style>
<g>
	<path class="st0" d="M318.5,190.6c30.1,8.1,65.6-20.5,77.5-63.9s-3.6-85.2-34.5-93.4c-30.1-8.1-65.6,20.5-77.5,63.9
		C272.1,140.6,287.6,182.5,318.5,190.6z"/>
	<path class="st0" d="M193.5,190.6c30.9-8.1,46.4-49.1,34.5-93.4c-11.9-44.3-46.5-71.1-77.5-63.9c-30.9,8.1-46.4,49.1-34.5,93.4
		C127.9,170.1,162.5,198.8,193.5,190.6z"/>
	<path class="st0" d="M474.9,161.3c-29.1-6.1-61.2,15.5-71.6,50.1c-10.4,34.6,4.8,68.4,33.9,75.4c29.1,6.1,61.1-15.5,71.6-50.1
		C519.1,202,503.1,168.3,474.9,161.3z"/>
	<path class="st0" d="M256,224c-79.4,0-191.1,122.7-191.1,200.2C64,459.1,90.8,480,135.8,480c48.8,0,81.1-25.1,120.2-25.1
		c39.5,0,71.9,25.1,120.2,25.1c44.1,0,71.7-20.9,71.7-55.8C447.1,346.8,335.4,224,256,224z"/>
	<path class="st0" d="M108.8,211.4c-10.4-34.6-42.5-57.1-71.6-50.1S-7.1,202,3.3,236.6c10.4,34.7,42.5,57.2,71.6,50.2
		S119.1,246,108.8,211.4z"/>
</g>
<g>
	<path class="st1" d="M188.7,310.1c0,2.9-0.3,5.9-1,8.7c-5.9,0-11.8-0.2-17.5-0.5v10.5c6.9,0.7,12.1,1.3,15.4,2
		c1,5.9,1.6,11.8,1.6,18c0,5.6-0.5,9.3-1.3,11.3c-3.6,0.5-10.3,0.8-19.8,1c0.2,3.3,0.3,6.5,0.5,9.5c5.1,0,10.1,0,15.4-0.2v5.1
		c0,2.5-0.3,4.3-0.7,5.4h-52.7c-2-18.3-2.8-38.1-2.8-59.2c3.3-0.3,6.9-0.7,10.8-0.7c0.3,10,0.8,19.8,1.1,29.6
		c9.8-0.5,22.6-0.8,38.1-1.1c-0.3-2.9-0.5-5.9-0.5-9c-10.5-1-20.9-2.1-31.7-3.3c0-3.1,0.2-6.4,0.8-9.8c5.2,0.3,10.1,0.5,14.4,0.7
		v-10.6c-8.2-0.8-16.4-2-24.2-3.6c0-3.1,0.3-6.2,1-9.2C153.4,305.2,171.1,307.2,188.7,310.1z M154.7,361.2
		c-4.9,0.2-10.5,0.2-16.4,0.2c0,3.1,0.2,6.2,0.3,9.2h16.7C155,367.2,154.7,364.1,154.7,361.2z M180.9,395c0.3-3.9,0.8-7.9,1.3-11.8
		c2-0.2,4.1-0.3,6.4-0.3c2.6,0.3,4.4,0.7,5.4,1c-0.2,4.1-0.3,8-0.7,11.8c7.9,0.7,16.2,1.1,25,1.8c0,3.3-0.3,6.9-1,10.6
		c-8.3,0-16.5-0.2-24.7-0.7c-0.3,5.2-0.8,10.1-1.3,14.9c8.5,0,15.7,0.5,21.3,1.1c0.3,1,0.7,2.6,0.7,4.9c0,2.3-0.3,3.9-0.7,4.7
		c-1.6,0.5-9.5,0.8-23.6,0.8c-18.6,0-28.8-0.3-30.4-0.8c-0.5-1.3-0.7-3.1-0.7-5.1c0-2,0.2-3.6,0.8-5.1c6.2-0.3,12.8-0.7,20-0.7
		c0.2-5.2,0.5-10.5,1-15.5c-8.3-0.3-16.5-1-24.4-2v-5.6c0-1.6,0-3.1,0.3-4.7C163.5,394.5,171.9,394.7,180.9,395z M240.4,326.2
		c-1,10.5-2.9,21.3-5.9,32.7c5.2,1.8,10.6,3.6,16,5.6c-0.3,3.6-1.5,6.9-3.4,10.1c-5.6-1.3-10.8-2.8-15.7-4.4
		c-1.6,5.2-3.4,10.6-5.4,16c-2.8,0-5.9-1-9.3-2.9c1.1-5.6,2.3-11,3.6-16.4c-7.8-2.5-15.2-5.1-22.4-8c1.1-3.4,2.5-6.9,3.9-10.3
		c7,2,14.1,4.1,21.1,6.4c1.3-6.4,2.8-12.8,4.1-19c-9.6-0.7-19-1.5-28.1-2.8c0-4.1,0.3-7.7,1-10.6
		C219.3,323.2,232.9,324.5,240.4,326.2z"/>
	<path class="st1" d="M294,323.2c0,12.8-0.7,26.8-2,42.5c-1.3,0.5-3.1,0.7-5.7,0.7c-2.6,0-4.4-0.3-5.4-1.3c0-18.6,0.7-32.9,2-42.5
		c1.6-0.2,3.4-0.3,5.7-0.3C290.4,322.3,292.2,322.6,294,323.2z M314.3,386c-1.8,8.8-3.4,18.6-5.1,29.4c23.9,2.6,49.1,5.6,75.9,8.7
		c-0.5,3.3-1.1,6.5-2,10c-30.6-2.1-59.7-5.6-87.3-10.1c2-14.7,4.3-27.8,6.9-39.6C306.8,384.9,310.7,385.4,314.3,386z M305,367.2
		c-0.7-3.1-0.8-6.4-0.8-9.6c22.2-2.3,46.1-3.4,71.5-3.4c0.2,1.3,0.3,2.8,0.3,4.4v4.6c-9.8,1.3-19.6,2.1-29.1,2.6
		c0.3,5.9,0.7,11.6,0.8,17.2c10.5-1,20.3-1.5,29.8-1.5c0.3,1.3,0.7,2.8,0.7,4.1c0,1.6-0.3,2.9-0.7,4.3c-5.2,1.1-15,2.1-29.4,3.1
		c0,5.9,0.2,11.6,0.2,17.2c-1.3,0.7-3.3,1-5.7,1c-2.3,0-4.1,0-5.4-0.3c-1.6-14.6-2.5-29.3-2.6-44.3
		C324.5,367.1,314.6,367.2,305,367.2z M335.9,325.8c-0.5-5.9-0.7-11.8-0.7-17.7c2-0.2,4.1-0.3,6.4-0.7c2.3,0,4.1,0.2,5.7,0.3
		c0,6.2,0.2,12.3,0.2,18.2c17.7,0.3,35,1,52.2,1.6c1.3,11.9,2.1,23.2,2.1,34c-1.1,0.5-2.6,0.7-4.6,0.7c-1.5,0-3.3,0-5.4-0.3
		c-1-5.1-2-13.1-2.8-24c-25.5,0-51.4-0.7-77.4-2.1c-0.5-1.5-0.7-3.3-0.7-5.4c0-1.5,0-3.1,0.3-4.7
		C319.7,325.7,327.9,325.8,335.9,325.8z"/>
</g>
</svg>
