<?xml version="1.0" encoding="utf-8"?>
<!-- Generator: Adobe Illustrator 26.3.1, SVG Export Plug-In . SVG Version: 6.00 Build 0)  -->
<svg version="1.1" id="圖層_1" xmlns="http://www.w3.org/2000/svg" xmlns:xlink="http://www.w3.org/1999/xlink" x="0px" y="0px"
	 viewBox="0 0 512 512" style="enable-background:new 0 0 512 512;" xml:space="preserve">
<style type="text/css">
	.st0{fill:#FCD52E;}
	.st1{fill:#FFFFFF;}
</style>
<g>
	<path class="st0" d="M318.5,190.6c30.1,8.1,65.6-20.5,77.5-63.9s-3.6-85.2-34.5-93.4c-30.1-8.1-65.6,20.5-77.5,63.9
		C272.1,140.6,287.6,182.5,318.5,190.6z"/>
	<path class="st0" d="M193.5,190.6c30.9-8.1,46.4-49.1,34.5-93.4c-11.9-44.3-46.5-71.1-77.5-63.9c-30.9,8.1-46.4,49.1-34.5,93.4
		C127.9,170.1,162.5,198.8,193.5,190.6z"/>
	<path class="st0" d="M474.9,161.3c-29.1-6.1-61.2,15.5-71.6,50.1c-10.4,34.6,4.8,68.4,33.9,75.4c29.1,6.1,61.1-15.5,71.6-50.1
		C519.1,202,503.1,168.3,474.9,161.3z"/>
	<path class="st0" d="M256,224c-79.4,0-191.1,122.7-191.1,200.2C64,459.1,90.8,480,135.8,480c48.8,0,81.1-25.1,120.2-25.1
		c39.5,0,71.9,25.1,120.2,25.1c44.1,0,71.7-20.9,71.7-55.8C447.1,346.8,335.4,224,256,224z"/>
	<path class="st0" d="M108.8,211.4c-10.4-34.6-42.5-57.1-71.6-50.1S-7.1,202,3.3,236.6c10.4,34.7,42.5,57.2,71.6,50.2
		S119.1,246,108.8,211.4z"/>
</g>
<g>
	<path class="st1" d="M155.2,327.3c3.9-9.3,7.9-18.5,11.9-27.6c4.3,1,8,2.3,11.3,3.9c-3.3,8.3-6.5,16.5-9.8,24.4
		c23.7,1.3,47.4,2.6,71,4.3c0.7,1.8,1,3.8,1,6.1c0,1.6-0.3,3.3-1,5.1c-25.8-0.3-51.2-1.3-76-2.9c-11.4,28.1-23.1,55.9-34.7,83.2
		c-3.8-0.5-7-1.8-10-4.1c9.5-26.7,19.8-53.3,30.9-80c-11.4-0.7-22.7-1.6-33.7-2.6c-0.7-2-1-3.9-1-5.7c0-2,0.3-3.9,1-5.7
		C129.2,326.2,142.3,326.7,155.2,327.3z M219.1,372.6c-2,12.3-6.1,25-11.9,38.1c8.5,2.6,17,5.4,25.2,8.3c-1,3.3-2.3,6.4-3.9,9.5
		c-8.8-2.3-17.7-4.6-26.5-7.2c-2.6,4.9-5.4,10-8.3,15c-2.8,0-5.9-1-9.2-2.8c2.1-5.2,4.3-10.5,6.4-15.5c-8-2.5-16-5.1-23.9-8
		c0.8-4.1,2.1-7.5,3.9-10.5c8.3,2.5,16.5,4.9,24.5,7.4c3.4-8.2,6.9-16.5,10.3-24.9c-16-0.5-31.6-1.1-46.6-2.1
		c0-3.9,0.2-7.4,0.8-10.3C188.4,370.3,208,371.3,219.1,372.6z"/>
	<path class="st1" d="M314.6,333.7c-13.7,0-23.4-0.3-29.3-1.1c-0.5-1.5-0.7-3.3-0.7-5.2c0-1.8,0-3.4,0.3-4.7
		c7.7-0.2,17-0.3,28.1-0.3c-2.9-3.3-5.6-7.2-7.9-11.4c2.3-1.8,4.9-3.3,8-4.3c5.6,5.9,9.8,11.1,12.8,15.7c9.5,0,18,0.2,25.5,0.2
		c2.6-6.7,6.2-13.2,10.5-19.5c3.8,1,7,2.3,9.6,4.1c-2,5.2-4.3,10.5-7,15.5c7.9,0.2,14.2,0.3,19.1,0.3c0.2,1.3,0.3,2.8,0.3,4.4v4.9
		c-3.9,0.8-17.2,1.3-40.1,1.5c0,3.1,0.2,6.1,0.3,8.8c9.3-0.3,18.3-0.7,27.1-0.7c0.3,1.3,0.7,2.8,0.7,4.3c0,1.6-0.3,3.1-0.7,4.4
		c-5.9,1-14.9,2-26.8,2.8v6.4c0,0.8-0.2,1.6-0.2,2.3c10-0.7,20.3-1.1,30.7-1.6c0.3,2.9,0.7,6.2,0.7,9.5c-27.1,3.8-53.2,5.6-77.8,5.6
		c-0.7-2.9-1-5.9-1-9.2c11.3-1.3,22.9-2.3,34.8-3.3v-2.5c0-2.1,0-4.3,0.2-6.4c-9,0.7-19,1.1-30.1,1.5c-1.6-2.3-2.3-5.6-2.3-9.8
		c11.1-1,21.9-2,32.5-2.6c0-3.3,0.2-6.4,0.5-9.5H314.6z M374.2,375.9c-1,5.1-2.6,9.5-4.6,13.1c6.5-0.2,13.1-0.3,19.5-0.3
		c0.3,1.3,0.7,2.8,0.7,4.3c0,1.6-0.3,3.1-0.7,4.4c-16.2,2.6-49.6,5.1-100.3,7c-1.6-2.3-2.3-5.6-2.3-9.8c10.5-1.1,20.6-2.1,30.7-2.9
		c-3.6-2.9-6.7-6.1-9.5-9.3c2.8-2.3,5.6-4.3,8.3-5.9c4.3,3.9,8.2,7.9,11.8,11.8c-0.8,1.1-1.8,2.1-2.8,2.9
		c11.1-0.8,22.1-1.5,32.7-1.8c1.6-5.7,4.3-11.1,7.8-16.2C368.4,373.8,371.2,374.7,374.2,375.9z M374.7,409.1
		c1,6.7,1.6,13.1,1.6,19.5c0,4.6-0.3,7.7-0.7,9.2c-5.6,1.6-15.5,2.6-29.9,2.6c-15.7,0-26.3-0.8-31.9-2.3c-0.8-2.5-1.5-6.4-1.8-11.9
		c-0.5-4.6-0.7-8.2-0.7-11.3c1.3-0.3,3.4-0.7,6.1-1c2.5,0,4.3,0.2,5.4,0.3c0.7,4.7,1,9.5,1,14.6c6.9,0.3,14.2,0.7,21.9,0.7
		c6.5,0,12.6-0.3,18.2-0.8c-0.3-3.1-0.7-6.2-1-9.2c-6.9,0-13.2-0.2-19.1-0.3c-4.9,0-9.8-0.2-15-0.5c-0.5-2.1-0.7-3.8-0.7-5.1
		c0-1.6,0.2-3.3,0.7-4.9C347.8,408.6,363.2,408.8,374.7,409.1z"/>
</g>
</svg>
